<svg xmlns="http://www.w3.org/2000/svg" viewBox="0 0 1671.53 899.69"><defs><style>.cls-1{fill:#fff;stroke:#000;stroke-miterlimit:10;}</style></defs><g id="Layer_2" data-name="Layer 2"><g id="Layer_1-2" data-name="Layer 1"><path class="cls-1" d="M297.05,2.55l32,280-282,62,516-28-475,98,503,5-423,94h423l-409,85H719l-511,69,715,2-923,85,766-4s-827,160-553,148,943-91,943-91l-101-790s260,272,242,41,354,302,354,302l-316-36s-418-34-91,56,365,102,365,102,135,73-280,57,336,168,336,168,70,15-269,121"/></g></g></svg>