<svg xmlns="http://www.w3.org/2000/svg" viewBox="0 0 1460.68 481.8"><g id="Layer_2" data-name="Layer 2"><g id="Layer_1-2" data-name="Layer 1"><path d="M183.6,2.1q-3,7.8-8.1,22.65T165.9,63.3h-6a79,79,0,0,0,1.35-8.7q.45-4.5.45-8.4A44,44,0,0,0,157.05,26a34,34,0,0,0-14-14.4Q133.8,6.3,118.8,6.3,102,6.3,90.45,15T78.9,42.6a42.37,42.37,0,0,0,5.4,20.85A98.25,98.25,0,0,0,98,82.2q8.25,9,17.85,18t18,18.45a96.36,96.36,0,0,1,13.8,19.95,49.76,49.76,0,0,1,5.4,23.1q0,15.6-7.35,26.85a59,59,0,0,1-18.9,18.3,90.72,90.72,0,0,1-25.2,10.5A109.3,109.3,0,0,1,74.7,220.8a90.3,90.3,0,0,1-21.15-2.1,54.44,54.44,0,0,1-14.25-5.4Q33.6,210,29.1,207A26,26,0,0,0,23,203.55a14.18,14.18,0,0,0-4.65-1.05q-3.9,0-6.45,3.9A72.13,72.13,0,0,0,6,218.7H0q2.7-6.6,5.7-15.3t6.6-22.35q3.6-13.65,8.1-34.35h6a101.2,101.2,0,0,0-2.25,12,68.85,68.85,0,0,0-.45,12q.9,20.7,12.75,32.25T72.6,214.5q19.8,0,31.05-8.7t11.25-26.7a50.58,50.58,0,0,0-5-22.65,88.94,88.94,0,0,0-12.6-18.9Q89.7,128.7,81,120.3T64.65,102.9A81.57,81.57,0,0,1,52.2,83.1a58.45,58.45,0,0,1-4.8-24q0-14.7,6-25.8A55.58,55.58,0,0,1,69.3,14.85a72.61,72.61,0,0,1,22-11.1A82.49,82.49,0,0,1,115.8,0Q130.2,0,140,3.45A67.79,67.79,0,0,1,157.8,12.9a50.06,50.06,0,0,0,5.85,3.75,9.46,9.46,0,0,0,4,1.35q4.2,0,9.9-15.9Z"/><path d="M231.3,184.8q-2.7,10.8-2.4,16.2t5.1,7.2q4.78,1.8,15,2.4l-1.2,6q-7.52-.6-18.75-.75t-23-.15q-12.6,0-23.4.15t-17.7.75l1.5-6A65.13,65.13,0,0,0,182,208.2a16,16,0,0,0,8.85-7.2q3.28-5.4,6-16.2L236.4,36q3-11.1,2.4-16.35a8.29,8.29,0,0,0-5.25-7.2q-4.67-1.95-14.85-2.25l1.5-6q6.59.3,17.55.6t23.55.3q11.7,0,22.95-.3t19.05-.6l-1.5,6q-10.21.3-15.9,2.25a16.1,16.1,0,0,0-8.85,7.2Q273.9,24.9,270.9,36Z"/><path d="M510,5.1h17.4q11.7,0,22.5-.3t18.6-.6l-1.5,6q-10.2.3-15.9,2.25a16.13,16.13,0,0,0-8.85,7.2Q539.09,24.9,536.09,36l-39.6,148.8q-2.7,10.8-2.25,16.2a7.75,7.75,0,0,0,5.25,7.2q4.8,1.8,14.7,2.4l-1.2,6q-7.8-.6-18.45-.75t-22.35-.15q-12.6,0-23.85.15t-18.15.75l1.2-6q10.5-.6,16.05-2.4a16,16,0,0,0,8.85-7.2q3.3-5.4,6-16.2l43.5-161.7-124.5,195h-6.6L353.09,25.2,312,180.6a69.42,69.42,0,0,0-2.25,16.8,10.42,10.42,0,0,0,5.7,9.6q5.55,3,17.55,3.6l-1.5,6q-3.3-.3-8.85-.45l-11.4-.3q-5.85-.15-10.95-.15-7.8,0-15.6.15t-12.9.75l1.5-6q10.51-.6,16.35-3.6a22.46,22.46,0,0,0,9.45-9.6,67.79,67.79,0,0,0,6-16.8L343.79,36q3-11.1,2.4-16.35a8.26,8.26,0,0,0-5.25-7.2q-4.65-1.95-14.85-2.25l1.5-6q5.7.3,14,.6t17.55.3q7.2,0,14.4-.3t12.3-.6L402.59,174Z"/><path d="M611.69,131.4l1.5-6h13.5q21.3,0,36.15-6.6t23.7-18a74.37,74.37,0,0,0,12.9-25.95,113,113,0,0,0,4-30.45q0-17.1-8.1-25.65t-27-8.55q-7.8,0-12.45,2.25a16,16,0,0,0-7.35,7.8A90.5,90.5,0,0,0,643.19,36l-39.6,148.8A66.42,66.42,0,0,0,601,199.35a8.74,8.74,0,0,0,4.2,8.25q4.35,2.7,16,3l-1.2,6q-7.5-.6-18.15-.75t-22.05-.15q-12.9,0-24.3.15t-18.3.75l1.2-6q10.2-.6,15.9-2.4a15.94,15.94,0,0,0,9-7.2q3.3-5.4,6-16.2L609,36q2.4-9.6,2.4-15a8.84,8.84,0,0,0-4.5-8.1q-4.5-2.7-15.6-2.7l1.5-6q6.6.3,18,.6t22.5.3q10.8,0,21.75-.3t22.05-.3q32.1,0,47.7,12.15t15.6,33.15a65.37,65.37,0,0,1-14.7,41.85q-14.7,18.45-41,29.1t-61,10.65Z"/><path d="M893.39,153.6q-1.8,4.8-3.6,11.1t-3.9,13.5q-1.5,5.7-3.9,16.35t-4.2,22q-15.3-.6-34.35-.75t-34.05-.15h-17.7q-10.8,0-23.4.15l-25.35.3q-12.75.15-24.15.45l1.5-6q10.2-.6,15.9-2.4A15.33,15.33,0,0,0,745,201q3.15-5.4,6.15-16.2L791.09,36q3-11.1,2.55-16.35a8,8,0,0,0-5.1-7.2q-4.65-1.95-14.85-2.25l1.5-6q6.59.3,17.85.6t24.15.3q11.4,0,22.35-.3t18.75-.6l-1.5,6q-10.2.3-15.9,2.25a16.8,16.8,0,0,0-9,7.2q-3.3,5.25-6.3,16.35l-39.9,148.8q-3,10.8-2.55,16.2t5.25,7.05c3.19,1.1,8.2,1.65,15,1.65H822q17.1,0,28.5-5.4t20-17.7q8.55-12.3,16-33Z"/><path d="M1080.89,58.2q2.4-17.7,1.2-28.05t-8.25-14.7q-7-4.35-22.35-4.35h-17.7q-9.9,0-15.45,1.65a15.4,15.4,0,0,0-8.85,6.9q-3.32,5.25-6.3,16.35l-39.9,148.8q-3,10.8-2.55,16.2t5.25,7.05c3.19,1.1,8.2,1.65,15,1.65h18.3q18,0,29.1-5.1t19-16.65q7.93-11.55,15.45-31.35h6.9c-1,2.6-2.1,5.8-3.3,9.6s-2.3,7.8-3.3,12q-1.51,5.7-3.9,16.35t-3.9,22q-15.3-.6-34.5-.75t-34.2-.15H969.14q-10.65,0-23.25.15l-25.35.3q-12.76.15-24.15.45l1.5-6q10.2-.6,15.9-2.4a15.36,15.36,0,0,0,8.85-7.2q3.15-5.4,6.15-16.2L968.69,36q3-11.1,2.55-16.35a8,8,0,0,0-5.1-7.2q-4.67-1.95-14.85-2.25l1.5-6q11.4.3,24.15.45l25.35.3q12.6.15,23.25.15h17.55q13.5,0,30.15-.15t30.15-.75q-3.9,10.5-6.9,20T1092,39.6c-1,3.6-1.85,7-2.55,10.35s-1.25,6-1.65,8.25Zm-110.7,54.6,1.8-6h54.3l-1.5,6Zm30.9-6q9.6,0,15.9-3.75a35.4,35.4,0,0,0,10.65-9.75A73.28,73.28,0,0,0,1035,80.7q3-6.6,5.4-12.3h6.9q-5.4,15.9-7.5,24.75t-4.2,16.65q-1.52,5.1-2.7,10.5c-.8,3.6-1.76,7.8-2.85,12.6s-2.36,10.9-3.75,18.3h-6.9q.6-6.9,1.05-13.65a37.45,37.45,0,0,0-1.05-12.3,16.22,16.22,0,0,0-6.15-9c-3.11-2.3-7.85-3.45-14.25-3.45Z"/><path d="M366.6,445.8q-2.7,10.8-2.4,16.2a7.47,7.47,0,0,0,5.1,7.2c3.19,1.2,8.2,2,15,2.4l-1.2,6q-7.5-.6-18.75-.75t-23-.15q-12.6,0-23.4.15t-17.7.75l1.5-6a65.13,65.13,0,0,0,15.45-2.4,16,16,0,0,0,8.85-7.2q3.3-5.4,6-16.2L371.7,297q3-11.1,2.4-16.35a8.28,8.28,0,0,0-5.25-7.2q-4.67-1.95-14.85-2.25l1.5-6q6.58.3,17.55.6t23.55.3q11.7,0,22.95-.3t19.05-.6l-1.5,6q-10.2.3-15.9,2.25a16.13,16.13,0,0,0-8.85,7.2Q409.2,285.9,406.2,297Z"/><path d="M595.5,263.1q-3,7.8-8.1,22.65t-9.61,38.55h-6a76.71,76.71,0,0,0,1.36-8.7q.45-4.5.45-8.4A44.17,44.17,0,0,0,569,287a34.07,34.07,0,0,0-14-14.4q-9.32-5.25-24.3-5.25-16.82,0-28.35,8.7t-11.56,27.6a42.38,42.38,0,0,0,5.41,20.85,97.39,97.39,0,0,0,13.65,18.75q8.24,9,17.85,18t18,18.45a96.75,96.75,0,0,1,13.8,20,49.76,49.76,0,0,1,5.4,23.1q0,15.6-7.36,26.85a59.08,59.08,0,0,1-18.89,18.3,91,91,0,0,1-25.2,10.5,109.42,109.42,0,0,1-26.85,3.45,90.3,90.3,0,0,1-21.15-2.1,54.3,54.3,0,0,1-14.25-5.4c-3.81-2.2-7.2-4.3-10.2-6.3a26.34,26.34,0,0,0-6.15-3.45,14.24,14.24,0,0,0-4.65-1.05q-3.92,0-6.45,3.9a70.63,70.63,0,0,0-5.85,12.3h-6q2.7-6.6,5.7-15.3t6.6-22.35q3.6-13.65,8.09-34.35h6a101.2,101.2,0,0,0-2.25,12,67.87,67.87,0,0,0-.44,12q.9,20.7,12.75,32.25T484.5,475.5q19.8,0,31-8.7t11.25-26.7a50.58,50.58,0,0,0-4.94-22.65,89.32,89.32,0,0,0-12.6-18.9q-7.65-8.85-16.35-17.25t-16.36-17.4a81.53,81.53,0,0,1-12.44-19.8,58.29,58.29,0,0,1-4.81-24q0-14.7,6-25.8a55.6,55.6,0,0,1,15.91-18.45,72.49,72.49,0,0,1,22.05-11.1A82.44,82.44,0,0,1,527.7,261q14.38,0,24.15,3.45a68.1,68.1,0,0,1,17.85,9.45,49.22,49.22,0,0,0,5.84,3.75A9.46,9.46,0,0,0,579.6,279q4.18,0,9.9-15.9Z"/><path d="M790.49,265.5q30.6,0,45,10.65t14.4,28.05a45.7,45.7,0,0,1-9.3,28.05,75,75,0,0,1-24.75,20.85,132.16,132.16,0,0,1-33.75,12.6q29.7,3.3,42.45,16.65a43.92,43.92,0,0,1,12.75,31.35q0,16.2-7.65,28.05a63.42,63.42,0,0,1-20.7,19.8,104.09,104.09,0,0,1-29.55,12,144.24,144.24,0,0,1-34.5,4.05q-10.8,0-22.95-.45t-29-.45q-7.2,0-14.7.15l-14.1.3q-6.6.15-11.1.45l1.2-6q10.2-.6,15.9-2.4a15.94,15.94,0,0,0,9-7.2q3.3-5.4,6-16.2L724.79,297a88.28,88.28,0,0,0,2.4-14.55,8.78,8.78,0,0,0-4.05-8.4q-4.35-2.85-16-2.85l1.5-6q4.5.3,10.95.45l13.8.3q7.35.15,14.25.15,11.7,0,21.9-.3T790.49,265.5Zm-56.7,104.4,1.2-5.1h22.8q17.7,0,30.45-8.55a55.93,55.93,0,0,0,19.5-22.5,67,67,0,0,0,6.75-29.55q0-16.2-6.75-24.6t-22.65-8.4q-11.7,0-16.65,4.05t-8.25,17.25l-40.5,153.3a71.54,71.54,0,0,0-2.4,13.8q-.3,5.7,3.3,8.4t13.2,2.7q23.7,0,38.4-7.65a48,48,0,0,0,21.6-21.6q6.9-13.95,6.9-32.55,0-12-4.05-20.7a29,29,0,0,0-12.9-13.5q-8.85-4.8-23.25-4.8Z"/><path d="M1031.39,319.2q2.4-17.7,1.2-28.05t-8.25-14.7q-7-4.35-22.35-4.35h-17.7q-9.9,0-15.45,1.65a15.43,15.43,0,0,0-8.85,6.9q-3.3,5.25-6.3,16.35l-39.9,148.8q-3,10.8-2.55,16.2t5.25,7.05q4.8,1.65,15,1.65h18.3q18,0,29.1-5.1T997.94,449q7.95-11.55,15.45-31.35h6.9q-1.5,3.9-3.3,9.6t-3.3,12q-1.5,5.7-3.9,16.35t-3.9,22.05q-15.3-.6-34.5-.75t-34.2-.15H919.64q-10.65,0-23.25.15l-25.35.3q-12.75.15-24.15.45l1.5-6q10.2-.6,15.9-2.4a15.33,15.33,0,0,0,8.85-7.2q3.15-5.4,6.15-16.2L919.19,297q3-11.1,2.55-16.35a8,8,0,0,0-5.1-7.2q-4.65-1.95-14.85-2.25l1.5-6q11.4.3,24.15.45l25.35.3q12.6.15,23.25.15h17.55q13.5,0,30.15-.15t30.15-.75q-3.9,10.5-6.9,19.95t-4.5,15.45q-1.5,5.4-2.55,10.35t-1.65,8.25Zm-110.7,54.6,1.8-6h54.3l-1.5,6Zm30.9-6q9.6,0,15.9-3.75a35.4,35.4,0,0,0,10.65-9.75,72.63,72.63,0,0,0,7.35-12.6q3-6.6,5.4-12.3h6.9q-5.4,15.9-7.5,24.75t-4.2,16.65q-1.5,5.1-2.7,10.5t-2.85,12.6q-1.65,7.2-3.75,18.3h-6.9q.6-6.9,1.05-13.65a37.45,37.45,0,0,0-1.05-12.3,16.17,16.17,0,0,0-6.15-9q-4.65-3.45-14.25-3.45Z"/><path d="M1220.09,263.1q-3,7.8-8.1,22.65t-9.6,38.55h-6a79,79,0,0,0,1.35-8.7q.45-4.5.45-8.4a44.17,44.17,0,0,0-4.65-20.25,34.07,34.07,0,0,0-14-14.4q-9.31-5.25-24.3-5.25-16.82,0-28.35,8.7t-11.55,27.6a42.37,42.37,0,0,0,5.4,20.85,97.82,97.82,0,0,0,13.65,18.75q8.24,9,17.85,18t18,18.45a96.75,96.75,0,0,1,13.8,20,49.76,49.76,0,0,1,5.4,23.1q0,15.6-7.35,26.85a59.21,59.21,0,0,1-18.9,18.3,91,91,0,0,1-25.2,10.5,109.42,109.42,0,0,1-26.85,3.45,90.3,90.3,0,0,1-21.15-2.1,54.3,54.3,0,0,1-14.25-5.4c-3.81-2.2-7.2-4.3-10.2-6.3a26.34,26.34,0,0,0-6.15-3.45,14.24,14.24,0,0,0-4.65-1.05q-3.91,0-6.45,3.9a70.63,70.63,0,0,0-5.85,12.3h-6q2.7-6.6,5.7-15.3t6.6-22.35q3.6-13.65,8.1-34.35h6a97.31,97.31,0,0,0-2.25,12,66.94,66.94,0,0,0-.45,12q.9,20.7,12.75,32.25t36.15,11.55q19.8,0,31.05-8.7t11.25-26.7a50.58,50.58,0,0,0-5-22.65,88.94,88.94,0,0,0-12.6-18.9q-7.65-8.85-16.35-17.25t-16.35-17.4a81.26,81.26,0,0,1-12.45-19.8,58.29,58.29,0,0,1-4.8-24q0-14.7,6-25.8a55.46,55.46,0,0,1,15.9-18.45,72.61,72.61,0,0,1,22-11.1,82.44,82.44,0,0,1,24.45-3.75q14.4,0,24.15,3.45a67.94,67.94,0,0,1,17.85,9.45,48.45,48.45,0,0,0,5.85,3.75,9.38,9.38,0,0,0,4,1.35q4.18,0,9.9-15.9Z"/><path d="M1443.88,228.3q8.4,0,12.6,4.95a17.71,17.71,0,0,1,4.2,11.85,22.38,22.38,0,0,1-4.5,13.8,35.49,35.49,0,0,1-11.7,9.9q-8.1,4.8-20.25,7.2a145.94,145.94,0,0,1-28,2.4q-12.3,0-24.75-1.2t-24.9-3q-12.45-1.8-24.6-3t-23.25-1.2q-9.6,0-19.2.9t-14.7,4.2a19.73,19.73,0,0,1,6.9,8.25,26.09,26.09,0,0,1,2.7,11.55,22.8,22.8,0,0,1-4.5,13.5q-4.5,6.3-13.2,6.3-7.8,0-11.85-5.1a19.63,19.63,0,0,1-4-12.6,31,31,0,0,1,3.45-13.65q3.45-7.05,13.65-11.85a60.07,60.07,0,0,1,14.85-4.8,105,105,0,0,1,14.85-1.8q6.9-.3,10.5-.3a294,294,0,0,1,34.5,1.95q16.5,1.95,32.7,3.9a275.92,275.92,0,0,0,33,1.95,138.14,138.14,0,0,0,22.2-1.5,57,57,0,0,0,16.2-5.1l-.6,2.1a38.37,38.37,0,0,1-6.6-8.4,22.56,22.56,0,0,1-3.3-12,20.87,20.87,0,0,1,4.65-13.35Q1435.48,228.3,1443.88,228.3Zm-106.8,42.3q6.6.6,11.55,1.2l10,1.2q5.1.6,11.7,1.2l-44.7,168.6q-3,11.1-2.4,17.25a10,10,0,0,0,6.45,8.7q5.85,2.55,18.45,2.85l-1.2,6q-8.4-.6-21.45-.75t-26.85-.15q-13.8,0-26.55.15t-20.25.75l1.2-6q12.6-.6,19.65-3.15a21.82,21.82,0,0,0,11.1-8.7q4.05-6.15,7.35-16.95Z"/></g></g></svg>